<?xml version="1.0" standalone="no"?>
<!DOCTYPE svg PUBLIC "-//W3C//DTD SVG 20010904//EN"
 "http://www.w3.org/TR/2001/REC-SVG-20010904/DTD/svg10.dtd">
<svg version="1.0" xmlns="http://www.w3.org/2000/svg"
 width="240.000000pt" height="240.000000pt" viewBox="0 0 240.000000 240.000000"
 preserveAspectRatio="xMidYMid meet">
<metadata>
Created by potrace 1.14, written by Peter Selinger 2001-2017
</metadata>
<g transform="translate(0.000000,240.000000) scale(0.100000,-0.100000)"
fill="#000000" stroke="none">
<path d="M200 1150 l0 -1150 50 0 50 0 0 450 0 450 950 0 950 0 -62 78 c-312
389 -424 528 -428 532 -5 5 -77 94 -97 120 -12 16 -4 26 125 165 26 28 67 73
92 100 98 109 272 299 335 364 l39 41 -1002 0 -1002 0 0 -1150z m1729 1002
c-45 -49 -209 -227 -244 -266 -11 -12 -63 -68 -115 -125 -52 -57 -96 -106 -98
-109 -1 -6 154 -203 301 -382 7 -8 59 -72 115 -142 l103 -128 -846 0 -845 0 0
600 0 600 836 0 837 0 -44 -48z"/>
</g>
</svg>
